<svg width="21" height="67" viewBox="0 0 21 67" fill="none" xmlns="http://www.w3.org/2000/svg">
<path d="M7.0624 62.1013C7.45436 63.384 8.19788 64.4942 9.1862 65.2723C10.1745 66.0505 11.3568 66.4566 12.5632 66.4323L36.1319 65.7505C37.3472 65.7239 38.5222 65.2559 39.4813 64.4165C40.4404 63.5771 41.132 62.4113 41.4528 61.0935L44.788 21.0063C45.9713 21.6088 47.2596 21.9063 48.5584 21.8771C49.6868 21.8452 50.7985 21.5639 51.8302 21.0491C52.8618 20.5343 53.7932 19.7962 54.571 18.8768C55.3489 17.9575 55.958 16.8748 56.3637 15.6909C56.7693 14.5069 56.9635 13.2447 56.9352 11.9763C56.9069 10.708 56.6566 9.45831 56.1986 8.2987C55.7406 7.13909 55.0839 6.09223 54.266 5.21789C53.4481 4.34355 52.4849 3.6589 51.4316 3.20294C50.3783 2.74698 49.2553 2.52864 48.1269 2.56048C47.6078 2.5586 47.09 2.61917 46.5823 2.74108C46.0302 2.06968 45.3592 1.53566 44.6124 1.17346C43.8655 0.811254 43.0595 0.628874 42.2461 0.638056L5.99214 1.69036C5.6914 1.70284 5.39219 1.74461 5.09787 1.81518C4.30282 1.98177 3.54873 2.33786 2.88638 2.85949C2.22403 3.38113 1.6688 4.05617 1.25802 4.83923C0.847242 5.62229 0.590418 6.4952 0.504929 7.39916C0.419439 8.30312 0.507225 9.21714 0.762367 10.0798L7.0624 62.1013ZM45.472 18.2844L47.8453 8.73168C48.1153 7.62819 48.1215 6.46419 47.8634 5.35711C47.9785 5.35677 48.0801 5.29541 48.1953 5.2951C49.8226 5.25728 51.3968 5.94636 52.5728 7.21118C53.7488 8.476 54.4306 10.2134 54.4687 12.0424C54.5068 13.8713 53.8981 15.6427 52.776 16.968C51.654 18.2933 50.1102 19.0644 48.4832 19.1122C47.4311 19.1492 46.3901 18.863 45.472 18.2844Z" fill="#2F2E41"/>
</svg>
