<svg width="69" height="184" viewBox="0 0 69 184" fill="none" xmlns="http://www.w3.org/2000/svg">
<path d="M0.831085 98.2644L9.26143 118.539L12.2039 125.6L20.1279 172.242L24.0832 176.965L27.4909 160.209L29.0921 159.84L57.969 153.118L66.3857 183.164C68.2827 179.611 69.0301 175.431 68.5014 171.33C67.9727 167.23 66.2005 163.46 63.4843 160.658C62.9095 160.074 62.4306 159.505 62.4442 158.966C62.9232 126.523 61.1578 67.2827 45.2139 42.9004C40.1502 35.1627 37.112 27.4557 32.6914 22.0716C32.6777 22.0563 32.6778 22.0409 32.6641 22.0409L21.9071 2.24277L21.2501 1.02744L20.5112 0.612152L0.831085 98.2644Z" fill="#3F3D56"/>
</svg>
