<svg width="3" height="16" viewBox="0 0 3 16" fill="none" xmlns="http://www.w3.org/2000/svg">
<path d="M8.40036 15.373C8.44341 15.3609 8.48449 15.3414 8.52221 15.3152C8.57217 15.2811 8.61567 15.2362 8.6502 15.1832C8.68473 15.1302 8.70961 15.0701 8.72345 15.0063C8.73729 14.9425 8.73985 14.8763 8.73089 14.8113C8.72193 14.7464 8.70166 14.6841 8.67127 14.628L1.41565 1.21967C1.35413 1.10662 1.25522 1.0256 1.14062 0.994447C1.02603 0.963295 0.905132 0.984576 0.804449 1.05353C0.703766 1.12248 0.631511 1.23349 0.603592 1.36224C0.575673 1.491 0.594393 1.62694 0.655557 1.74024L7.91112 15.1486C7.96065 15.2398 8.03485 15.3108 8.12289 15.3512C8.21092 15.3916 8.30819 15.3992 8.40036 15.373Z" fill="#6C63FF"/>
</svg>
