<svg width="64" height="173" viewBox="0 0 64 173" fill="none" xmlns="http://www.w3.org/2000/svg">
<path d="M63.7547 93.6537L57.0056 109.887L52.3981 120.975L44.4718 167.621L40.5035 172.355L37.1036 155.596L1.51933 164.477C0.352185 157.187 1.20689 164.723 0.486298 156.727C0.689291 156.499 0.902377 156.27 1.11553 156.042C1.68386 155.449 2.16088 154.89 2.15074 154.354C1.74476 126.77 2.96264 79.8276 13.1319 51.3883C14.7246 46.7449 16.8245 42.3419 19.3836 38.2809C19.5865 37.9729 19.7794 37.6648 19.9722 37.3568C24.661 29.976 27.6245 22.7094 31.8262 17.5418V17.5304C31.8523 17.5067 31.8761 17.4799 31.8972 17.4505C31.9125 17.4419 31.9262 17.4303 31.9378 17.4162L60.8013 0.21347L62.0395 39.3189L62.9225 67.4275L63.7547 93.6537Z" fill="#3F3D56"/>
</svg>
