<svg width="392" height="413" viewBox="0 0 392 413" fill="none" xmlns="http://www.w3.org/2000/svg">
<path d="M387.29 55.32C386.516 54.74 385.734 54.19 384.96 53.63C362.586 37.5457 338.604 24.4791 313.511 14.7L307.693 104.92H270.808V1.52995C268.486 0.989953 266.146 0.479954 263.806 -4.57764e-05V104.92H219.973C195.842 104.92 172.699 94.1451 155.636 74.9658C138.573 55.7865 128.987 29.7737 128.987 2.65007C126.639 3.22007 124.308 3.82998 121.977 4.47998V104.92H86.275L80.7324 18.89C54.9454 30.0063 30.4643 44.6247 7.83389 62.42C7.44244 62.72 7.05099 63.03 6.66844 63.33C4.7023 64.88 2.76285 66.46 0.832291 68.06V412.25H106.052L104.193 383.3L93.9616 224.35H299.997L289.766 383.3L287.907 412.25H391.961V58.8C390.413 57.62 388.856 56.46 387.29 55.32ZM121.977 198.1H92.2713L86.7821 112.8H121.977V198.1ZM263.806 198.1H213.914V196.41C213.914 195.598 213.772 194.793 213.495 194.043C213.218 193.292 212.812 192.61 212.301 192.036C211.789 191.462 211.182 191.007 210.514 190.697C209.846 190.387 209.13 190.229 208.407 190.23H186.717C185.995 190.23 185.28 190.389 184.613 190.7C183.946 191.01 183.34 191.465 182.829 192.039C182.318 192.613 181.913 193.295 181.637 194.045C181.361 194.795 181.219 195.598 181.219 196.41V198.1H128.987V112.8H263.806V198.1ZM270.808 198.1V112.8H307.186L301.697 198.1H270.808Z" fill="#DDEEF8"/>
</svg>
