<svg width="65" height="107" viewBox="0 0 65 107" fill="none" xmlns="http://www.w3.org/2000/svg">
<path d="M0.538361 3.48081V106.041H64.4602V3.48081C64.4613 2.74317 64.2519 2.02458 63.8628 1.4306C63.4737 0.836631 62.9254 0.3986 62.2984 0.180818C62.0029 0.0711045 61.6932 0.0170391 61.382 0.0208148H3.62547C3.22059 0.0199316 2.81952 0.108752 2.4452 0.282198C2.07088 0.455643 1.73066 0.710313 1.44395 1.03165C1.15725 1.35298 0.929682 1.73466 0.774296 2.15491C0.618909 2.57515 0.538743 3.02571 0.538361 3.48081V3.48081ZM25.4844 38.7208C25.501 36.6989 26.2273 34.7662 27.5052 33.3431C28.783 31.92 30.5091 31.1216 32.308 31.1216C34.1069 31.1216 35.833 31.92 37.1109 33.3431C38.3887 34.7662 39.115 36.6989 39.1317 38.7208V50.6208C39.1225 52.6482 38.3995 54.5891 37.1208 56.0191C35.8421 57.449 34.1117 58.2517 32.308 58.2517C30.5043 58.2517 28.7739 57.449 27.4952 56.0191C26.2165 54.5891 25.4936 52.6482 25.4844 50.6208V38.7208Z" fill="#2F2E41"/>
</svg>
