<svg width="100" height="112" viewBox="0 0 100 112" fill="none" xmlns="http://www.w3.org/2000/svg">
<path d="M98.3407 35.0768C98.0334 34.7078 97.6631 34.4122 97.2519 34.2078C96.8407 34.0033 96.3971 33.8941 95.9475 33.8868L96.5436 32.0268C96.7381 31.4409 96.7906 30.8074 96.6957 30.1913C96.6008 29.5751 96.3619 28.9983 96.0034 28.5201C95.6449 28.0419 95.1798 27.6794 94.6557 27.4697C94.1315 27.26 93.5672 27.2107 93.0206 27.3268L90.8498 27.7968L91.0544 26.1668C91.1329 25.5597 91.0694 24.9401 90.8702 24.369C90.671 23.7978 90.343 23.2948 89.9184 22.9094C89.4938 22.5239 88.9873 22.2694 88.4487 22.1707C87.91 22.0721 87.3578 22.1328 86.8463 22.3468C86.381 22.5526 85.8806 22.6388 85.3819 22.599C84.8831 22.5592 84.3986 22.3945 83.9638 22.1168C83.5273 21.8476 83.1483 21.4746 82.8533 21.0238C82.5583 20.573 82.3543 20.0553 82.2557 19.5067L81.4995 15.4067L81.4194 15.1867C77.7362 8.28674 70.6546 3.26673 61.9893 1.42673C54.2759 -0.223273 46.3669 0.616738 38.7426 1.40674C35.7177 1.72674 32.3015 2.08672 29.4545 4.04672C27.0347 5.72672 24.9885 9.08675 25.4066 12.4767C17.889 9.88675 9.82872 15.0567 5.83416 21.5767C1.10118 29.3367 0.327168 39.0567 0.202616 46.6567C-0.135454 64.6367 3.16517 79.3467 9.98884 90.3867C10.4871 91.1867 10.6116 92.8567 11.5991 93.4167L11.3945 93.0467C12.4977 93.6667 13.6186 94.6667 13.2005 95.7367C11.9995 98.8167 19.9797 105.627 25.6023 107.877C35.8601 111.987 49.4985 111.637 59.089 110.157L59.4271 107.607C62.8879 107.077 65.3255 106.067 66.0105 104.487C67.2205 103.327 68.2525 102.287 69.151 101.327L69.1599 101.317C69.1777 101.297 69.2133 101.267 69.2311 101.247C73.5637 96.5767 74.569 93.9168 75.0228 89.8668C75.4587 85.8968 74.6847 81.8668 73.8929 78.2368C90.5651 81.1368 67.3272 58.2768 82.8606 53.8568C83.0388 53.7951 83.22 53.745 83.4033 53.7068C83.857 53.5868 84.3108 53.4668 84.7467 53.3268C86.8481 52.6856 88.8601 51.7198 90.7252 50.4568C95.0668 47.4868 96.4991 43.5468 98.741 39.1068C99.0646 38.4746 99.2002 37.7429 99.1282 37.0181C99.0562 36.2933 98.7803 35.6132 98.3407 35.0768V35.0768Z" fill="#2F2E41"/>
</svg>
