<svg width="262" height="176" viewBox="0 0 262 176" fill="none" xmlns="http://www.w3.org/2000/svg">
<path d="M261.967 64.4368C261.958 66.1868 261.94 68.6368 261.869 71.6668C261.86 72.0868 261.851 72.5167 261.842 72.9567C261.726 78.5267 261.611 83.1967 261.424 88.3867C261.415 88.7467 261.406 89.0967 261.388 89.4567C261.139 96.6967 260.748 105.127 260.072 118.477C258.817 143.137 256.629 121.867 254.431 130.517C254.324 130.947 254.209 131.457 254.102 132.057C253.769 134.234 253.208 136.359 252.429 138.387C251.264 139.167 250.063 139.917 248.88 140.667C245.508 142.777 242.083 144.807 238.631 146.737C236.691 147.817 234.743 148.877 232.786 149.897C232.475 150.057 232.172 150.217 231.87 150.367C221.847 155.578 211.517 160.008 200.954 163.627C198.89 164.327 196.835 165.007 194.753 165.637C192.582 166.317 190.412 166.957 188.214 167.557C171.867 172.068 155.139 174.612 138.313 175.147C136.045 175.227 133.758 175.257 131.463 175.257C130.324 175.257 129.203 175.247 128.064 175.237C127.717 175.237 127.37 175.227 127.023 175.217C126.018 175.187 124.977 175.167 123.927 175.137C103.624 174.425 83.487 170.785 64.009 164.307L63.1817 164.037C61.9006 163.597 60.6284 163.167 59.3561 162.707C53.4844 160.617 47.6986 158.277 41.9989 155.687C37.6485 153.717 33.3485 151.603 29.0989 149.347C29.0601 149.335 29.0238 149.315 28.9921 149.287C28.1025 148.827 27.2039 148.347 26.3143 147.857C26.1986 147.787 26.0741 147.717 25.9495 147.647C22.631 145.827 19.3482 143.92 16.101 141.927C13.3697 134.877 9.52641 133.527 7.14213 127.327C6.4482 125.485 5.94665 123.559 5.64751 121.587C5.64751 121.567 5.63861 121.547 5.63861 121.517C5.88771 125.237 4.57994 114.917 5.62973 121.477C5.62083 121.357 5.61194 121.227 5.60304 121.077C5.57635 120.717 5.54082 120.277 5.48744 119.727C2.43591 86.2368 2.63163 47.9368 1.30604 16.3768C1.21704 14.3368 1.12511 12.3834 1.03025 10.5167C1.00356 9.89675 0.967973 9.28679 0.932343 8.68679C0.994619 8.50679 1.06578 8.31674 1.14585 8.13674C1.16289 8.0849 1.18373 8.03476 1.20813 7.98678C1.23437 7.92472 1.26409 7.86461 1.29711 7.80679C1.3149 7.77679 1.34159 7.73675 1.35939 7.70675C1.37239 7.67243 1.38724 7.63906 1.40386 7.60678C1.48393 7.46678 1.57288 7.31678 1.67075 7.17678C1.71523 7.11678 1.75083 7.0667 1.79531 7.01675C1.82603 6.96566 1.86184 6.91873 1.90207 6.87679C1.92936 6.82873 1.96229 6.785 1.99994 6.74679C2.03553 6.70679 2.07109 6.65679 2.11557 6.60684C2.1346 6.57536 2.15876 6.5482 2.18676 6.52682C2.25712 6.43595 2.33451 6.35229 2.41805 6.27682C2.73547 5.94853 3.07452 5.64765 3.43228 5.37679C3.55678 5.28679 3.69027 5.19683 3.81482 5.09683C4.71141 4.49396 5.65547 3.98513 6.63505 3.57681C6.97312 3.43681 7.31117 3.30683 7.67593 3.16683C7.80938 3.12683 7.93393 3.07682 8.06738 3.02682C8.26311 2.95682 8.45884 2.88682 8.66347 2.83682C9.67767 2.49682 10.7719 2.20679 11.9552 1.93679C12.0975 1.90679 12.2488 1.87682 12.4 1.83682C12.6135 1.78682 12.836 1.74681 13.0584 1.70681C13.3609 1.64681 13.6722 1.58682 13.9836 1.52682C16.6259 1.05682 19.6241 0.706831 22.9336 0.476831C23.245 0.456831 23.5563 0.436834 23.8677 0.416834C24.2325 0.396834 24.5972 0.376836 24.9709 0.356836C25.2823 0.336836 25.6025 0.326797 25.9228 0.316797C26.2342 0.296797 26.5545 0.286819 26.8836 0.276819C27.7822 0.246819 28.7074 0.216802 29.6505 0.196802C32.3372 0.136802 35.1664 0.156831 38.1378 0.226831C39.5168 0.266831 40.9224 0.306795 42.3637 0.376795C42.4616 0.376795 42.5505 0.386804 42.6395 0.386804C43.8939 0.436804 45.1572 0.496807 46.4561 0.576807C47.3635 0.626807 48.2799 0.676841 49.1962 0.736841C50.0592 0.796841 50.9311 0.856843 51.8118 0.926843C52.4968 0.966843 53.1818 1.02681 53.8758 1.07681C54.4629 1.12681 55.0502 1.17682 55.6373 1.21682L56.438 1.27682C56.8739 1.31682 57.3099 1.34681 57.7547 1.39681C58.7333 1.48681 59.712 1.57683 60.7084 1.66683C61.6959 1.76683 62.7012 1.86682 63.7065 1.96682C64.7118 2.06682 65.726 2.17683 66.7402 2.28683C66.847 2.29683 66.9449 2.3068 67.0427 2.3168C67.968 2.42685 68.8932 2.5268 69.8274 2.6368C70.0409 2.6568 70.2633 2.67681 70.4768 2.70681C71.3674 2.80739 72.2754 2.92514 73.1742 3.0325C73.4501 3.06595 73.7245 3.09836 74.0011 3.13235C74.7052 3.21853 75.3992 3.29323 76.1082 3.3868C77.0424 3.5068 77.9944 3.6168 78.9196 3.7568C79.6402 3.8468 80.3608 3.93683 81.0814 4.03683C82.2113 4.18683 83.3589 4.34681 84.5066 4.51681C84.9425 4.57681 85.3785 4.63681 85.8144 4.70681C89.0884 5.16681 92.3979 5.67681 95.7608 6.20681C100.859 7.01681 106.036 7.89683 111.25 8.84683C116.472 9.79683 121.724 10.8002 127.006 11.8568C128.34 12.1268 129.675 12.3968 131.018 12.6768C131.623 12.8067 132.228 12.9367 132.833 13.0667C133.865 13.2767 134.897 13.4968 135.929 13.7168C136.961 13.9368 137.993 14.1567 139.025 14.3867C140.253 14.6567 141.489 14.9267 142.717 15.1967C150.804 16.9967 158.846 18.9168 166.693 20.9268C167.983 21.2567 169.273 21.5968 170.554 21.9268C173.116 22.5968 175.655 23.2768 178.17 23.9668C178.864 24.1468 179.549 24.3368 180.234 24.5268C181.942 25.0068 183.65 25.4868 185.331 25.9768L185.625 26.0667C186.862 26.4067 188.072 26.7568 189.282 27.1168C192.137 27.9568 194.946 28.8068 197.707 29.6668C199.539 30.2368 201.351 30.8134 203.142 31.3968C205.82 32.2668 208.445 33.1468 210.998 34.0368C211.63 34.2568 212.261 34.4767 212.884 34.6867C214.752 35.3367 216.594 35.9968 218.382 36.6568C219.806 37.1768 221.194 37.7068 222.564 38.2368C223.934 38.7668 225.277 39.2967 226.594 39.8267C227.439 40.1667 228.275 40.5268 229.111 40.8668C230.313 41.3668 231.496 41.8668 232.652 42.3668C233.008 42.5168 233.355 42.6767 233.702 42.8267C233.925 42.9367 234.138 43.0267 234.352 43.1267C234.77 43.3167 235.197 43.4967 235.606 43.6867C236.024 43.8667 236.433 44.0567 236.843 44.2567C237.243 44.4367 237.652 44.6267 238.044 44.8167C238.444 44.9967 238.835 45.1867 239.227 45.3867C239.556 45.5367 239.876 45.6968 240.188 45.8568C240.819 46.1668 241.451 46.4768 242.065 46.7968C242.367 46.9568 242.67 47.1067 242.972 47.2667L243.666 47.6267C243.764 47.6867 243.862 47.7368 243.96 47.7868C244.182 47.9068 244.414 48.0368 244.636 48.1568C245.152 48.4268 245.659 48.7168 246.157 48.9868C246.825 49.3668 247.474 49.7468 248.097 50.1168C248.728 50.4967 249.342 50.8768 249.929 51.2467C250.027 51.3067 250.116 51.3668 250.214 51.4268C250.348 51.5067 250.481 51.5968 250.615 51.6768C251.068 51.9668 251.504 52.2668 251.94 52.5567C252.794 53.1467 253.604 53.7267 254.36 54.3067C254.529 54.4367 254.689 54.5667 254.858 54.6867C255.419 55.1367 255.952 55.5767 256.451 56.0267C256.451 56.0367 256.451 56.0367 256.46 56.0367C256.629 56.1767 256.789 56.3267 256.949 56.4667C257.082 56.6067 257.225 56.7267 257.358 56.8667C257.821 57.3167 258.248 57.7466 258.639 58.1867C258.77 58.3225 258.895 58.4661 259.013 58.6167C259.065 58.6649 259.112 58.7185 259.155 58.7767C259.333 58.9767 259.493 59.1767 259.645 59.3767C259.668 59.4042 259.689 59.4344 259.707 59.4667C259.92 59.7467 260.116 60.0267 260.303 60.3067C260.392 60.4467 260.49 60.5867 260.57 60.7267C260.677 60.8967 260.783 61.0767 260.872 61.2467C260.952 61.3867 261.023 61.5367 261.095 61.6768C261.283 62.0372 261.444 62.4152 261.575 62.8067C261.675 63.0722 261.755 63.3464 261.815 63.6267C261.883 63.8923 261.933 64.1631 261.967 64.4368V64.4368Z" fill="#2F2E41"/>
</svg>
