<svg width="8" height="10" viewBox="0 0 8 10" fill="none" xmlns="http://www.w3.org/2000/svg">
<path d="M6.82531 9.49212C6.91121 9.46768 6.98865 9.41493 7.04772 9.34069C7.10679 9.26645 7.14481 9.17405 7.15686 9.07537C7.16892 8.9767 7.15446 8.87625 7.11538 8.78686C7.0763 8.69747 7.01435 8.62322 6.93749 8.57366L2.2196 5.53332L6.77964 1.72613C6.82649 1.68699 6.86599 1.63785 6.89595 1.58154C6.92592 1.52523 6.94576 1.46285 6.95427 1.39794C6.96278 1.33303 6.95982 1.26687 6.94558 1.20324C6.93135 1.13961 6.90611 1.0797 6.8713 1.02703C6.83648 0.974367 6.79276 0.929975 6.74266 0.896295C6.69257 0.862614 6.63708 0.840311 6.57933 0.830743C6.52158 0.821175 6.46272 0.824508 6.40611 0.840509C6.3495 0.85651 6.29625 0.884871 6.2494 0.924005L1.14397 5.1867C1.08465 5.23612 1.03725 5.30132 1.00599 5.37652C0.974736 5.45171 0.960597 5.53451 0.96494 5.61736C0.969283 5.70022 0.991967 5.78052 1.03086 5.85107C1.06975 5.92162 1.12366 5.98017 1.18773 6.02142L6.49478 9.44109C6.5949 9.50569 6.71341 9.52401 6.82531 9.49212V9.49212Z" fill="#6C63FF"/>
</svg>
