<svg width="150" height="19" viewBox="0 0 150 19" fill="none" xmlns="http://www.w3.org/2000/svg">
<path d="M0.824321 16.9208C1.07141 17.2691 1.38549 17.5498 1.74297 17.7421C2.10045 17.9343 2.49205 18.033 2.88833 18.0308H147.315C147.71 18.0302 148.1 17.9308 148.457 17.7395C148.813 17.5483 149.127 17.2702 149.376 16.9254C149.625 16.5806 149.802 16.1778 149.895 15.7462C149.988 15.3147 149.994 14.8654 149.913 14.4308L147.671 2.46079C147.578 1.97265 147.378 1.51844 147.089 1.13944C146.8 0.760429 146.431 0.468681 146.016 0.290803C145.716 0.158323 145.396 0.0904944 145.073 0.0908523H5.12138C4.79867 0.0904887 4.47877 0.158318 4.17835 0.290803C3.76339 0.468662 3.39458 0.760364 3.10556 1.13938C2.81654 1.51839 2.61648 1.97265 2.52357 2.46079L0.281643 14.4308C0.201872 14.8651 0.209191 15.3139 0.303065 15.7446C0.396938 16.1753 0.574995 16.5771 0.824321 16.9208Z" fill="#2F2E41"/>
</svg>
