<svg width="262" height="131" viewBox="0 0 262 131" fill="none" xmlns="http://www.w3.org/2000/svg">
<path opacity="0.2" d="M261.967 64.4368C261.958 66.1868 261.94 68.6368 261.869 71.6668C261.86 72.0868 261.842 72.5168 261.833 72.9568C261.744 77.2068 261.611 82.4568 261.424 88.3868C261.415 88.7468 261.406 89.0968 261.388 89.4568C261.139 96.6968 260.748 105.127 260.072 118.477C258.817 143.137 256.629 121.867 254.431 130.517C248.328 126.297 241.638 121.877 234.485 117.337C233.195 116.517 231.893 115.693 230.579 114.867C216.274 105.897 200.296 96.4967 183.614 87.1868C182.956 86.8168 182.289 86.4468 181.631 86.0868C143.42 64.8568 101.713 44.2068 67.9235 30.4268C61.4023 27.7668 55.1747 25.3668 49.3207 23.2568C36.9901 18.8268 26.332 15.7268 18.1293 14.3868C9.58863 12.9868 3.69022 13.4868 1.30594 16.3768C1.21694 14.3368 1.12499 12.3834 1.03012 10.5168C0.994503 9.89676 0.958921 9.28675 0.92337 8.68675C0.978271 8.52213 1.04962 8.36503 1.11869 8.20658C1.12857 8.18345 1.1356 8.15958 1.14578 8.13676C1.16283 8.08491 1.18366 8.03472 1.20807 7.98674C1.2343 7.92468 1.26402 7.86457 1.29704 7.80674C1.32597 7.73586 1.36177 7.66878 1.40379 7.60673C1.48386 7.46673 1.57282 7.31674 1.67068 7.17674C1.74264 7.07186 1.81988 6.97168 1.902 6.87669C1.9293 6.82863 1.96222 6.7849 1.99988 6.74668C2.03546 6.70668 2.07102 6.65668 2.11551 6.60673C2.13453 6.57526 2.15869 6.54816 2.1867 6.52677C2.25706 6.4359 2.33447 6.35224 2.41801 6.27677C2.73543 5.94849 3.07445 5.64761 3.43221 5.37675C3.55672 5.28675 3.6902 5.19672 3.81476 5.09672C4.71134 4.49386 5.65541 3.98508 6.63498 3.57676C6.97305 3.43676 7.31111 3.30673 7.67586 3.16673C7.80931 3.12673 7.93387 3.07677 8.06732 3.02677C8.26304 2.95677 8.45878 2.88677 8.6634 2.83677C9.67761 2.49677 10.7719 2.20675 11.9551 1.93675C12.311 1.85675 12.6847 1.77677 13.0583 1.70677C13.3608 1.64677 13.6722 1.58677 13.9836 1.52677C16.6258 1.05677 19.624 0.706726 22.9335 0.476726C23.2449 0.456726 23.5563 0.436728 23.8676 0.416728C24.2324 0.396728 24.5971 0.376731 24.9708 0.356731C25.2822 0.336731 25.6025 0.326753 25.9227 0.316753C26.2341 0.296753 26.5544 0.286775 26.8836 0.276775C27.7821 0.246775 28.7074 0.216757 29.6504 0.196757C32.3372 0.146757 35.1663 0.166736 38.1377 0.236736C39.5167 0.266735 40.9224 0.31676 42.3636 0.38676C42.4526 0.38676 42.5504 0.39677 42.6394 0.39677C43.8938 0.43677 45.166 0.506762 46.456 0.576762C47.3635 0.626762 48.2798 0.676736 49.1961 0.736736C50.0591 0.796736 50.931 0.856738 51.8117 0.926738C52.4968 0.966738 53.1818 1.02676 53.8757 1.07676C54.4629 1.12676 55.0501 1.17672 55.6373 1.21672C56.3401 1.27672 57.0429 1.33677 57.7546 1.39677C58.7333 1.48677 59.7119 1.57673 60.7083 1.66673C61.6958 1.76673 62.7011 1.86672 63.7065 1.96672C64.7118 2.06672 65.726 2.17672 66.7402 2.28672C66.8469 2.29672 66.9448 2.30675 67.0427 2.31675C67.9679 2.4268 68.8932 2.52676 69.8273 2.63676C75.0051 3.22676 80.3341 3.91677 85.8144 4.70677C89.0884 5.17677 92.4038 5.68005 95.7608 6.21672C100.859 7.02672 106.036 7.90672 111.25 8.84672C116.472 9.79672 121.724 10.8001 127.006 11.8567C128.34 12.1267 129.675 12.3967 131.018 12.6767C132.655 13.0167 134.292 13.3633 135.929 13.7167C136.961 13.9367 137.993 14.1568 139.025 14.3868C140.253 14.6568 141.489 14.9268 142.717 15.1968C150.804 16.9968 158.846 18.9167 166.693 20.9267C167.983 21.2567 169.273 21.5967 170.554 21.9267C173.116 22.5967 175.655 23.2767 178.17 23.9667C178.864 24.1567 179.549 24.3467 180.234 24.5367C181.951 25.0167 183.65 25.4967 185.331 25.9767V25.9867C185.429 26.0067 185.527 26.0368 185.625 26.0668C186.853 26.4168 188.072 26.7668 189.282 27.1268C192.137 27.9668 194.946 28.8134 197.707 29.6667C199.539 30.2467 201.354 30.8168 203.142 31.3968C205.82 32.2768 208.445 33.1567 210.998 34.0367C211.63 34.2567 212.261 34.4767 212.884 34.6867C214.752 35.3467 216.585 36.0034 218.382 36.6567C219.806 37.1767 221.194 37.7067 222.564 38.2367C223.934 38.7667 225.277 39.2968 226.594 39.8268C227.448 40.1668 228.284 40.5167 229.111 40.8567C230.321 41.3567 231.496 41.8567 232.652 42.3667C233.008 42.5167 233.355 42.6768 233.702 42.8268C234.352 43.1068 234.983 43.3967 235.606 43.6867C236.024 43.8667 236.433 44.0568 236.843 44.2568C237.243 44.4368 237.652 44.6268 238.044 44.8168C238.444 44.9968 238.835 45.1868 239.227 45.3868C239.556 45.5368 239.876 45.6967 240.188 45.8567C240.819 46.1667 241.451 46.4767 242.065 46.7967C242.367 46.9567 242.67 47.1068 242.972 47.2668L243.666 47.6268C243.764 47.6868 243.862 47.7367 243.96 47.7867C244.716 48.1867 245.446 48.5867 246.157 48.9867C246.825 49.3667 247.474 49.7467 248.097 50.1167C248.835 50.5567 249.538 50.9867 250.214 51.4267C250.348 51.5067 250.481 51.5967 250.614 51.6767C251.068 51.9667 251.504 52.2667 251.94 52.5567C252.794 53.1467 253.604 53.7267 254.36 54.3067C255.107 54.8867 255.801 55.4567 256.451 56.0267C256.451 56.0367 256.451 56.0367 256.46 56.0367C256.771 56.3167 257.073 56.5967 257.358 56.8667C257.821 57.3167 258.248 57.7466 258.639 58.1867C258.77 58.3225 258.895 58.466 259.013 58.6167C259.065 58.6649 259.112 58.7185 259.155 58.7767C259.342 59.0067 259.529 59.2367 259.707 59.4667C259.92 59.7467 260.116 60.0267 260.303 60.3067C260.392 60.4467 260.49 60.5867 260.57 60.7267C260.677 60.8967 260.783 61.0767 260.872 61.2467C260.952 61.3867 261.024 61.5367 261.095 61.6767C261.284 62.0371 261.444 62.4152 261.575 62.8067C261.672 63.0732 261.753 63.3473 261.815 63.6267C261.883 63.8924 261.933 64.1631 261.967 64.4368V64.4368Z" fill="black"/>
</svg>
