<svg width="158" height="252" viewBox="0 0 158 252" fill="none" xmlns="http://www.w3.org/2000/svg">
<path d="M0.633301 55.8458L0.826121 56.5303L0.836276 56.5531L6.64142 76.3911L13.3194 99.2521L25.8838 142.213L26.0056 148.887V148.91L26.9392 202.594L24.3513 209.872L27.264 221.805C27.264 221.805 25.9244 203.768 18.739 214.126C14.6693 220.012 9.90943 226.035 6.00206 231.682C11.6957 234.272 17.4805 236.614 23.3567 238.709C24.6254 239.166 25.9041 239.599 27.1829 240.033C27.4569 240.124 27.7309 240.215 28.0049 240.306C47.4838 246.781 67.6213 250.42 87.9241 251.132C88.9796 251.167 90.0148 251.189 91.0195 251.212C91.3748 251.224 91.7198 251.235 92.0649 251.235C93.2016 251.246 94.3281 251.258 95.4647 251.258C97.7584 251.258 100.042 251.22 102.315 251.144C119.142 250.611 135.87 248.068 152.217 243.558C152.106 235.972 151.801 227.108 151.365 217.639C151.162 212.996 146.605 207.966 146.331 203.106C146.138 199.456 150.228 196.022 150.015 192.314C148.635 169.488 146.91 178.25 145.631 162.086C145.499 160.5 145.377 158.983 145.265 157.534C144.443 147.153 143.875 140.662 143.875 140.662L149.335 101.979L157.911 41.2441L157.251 40.0235L156.511 39.6128L111.277 14.4475L108.821 7.37471C108.105 5.33708 106.864 3.58668 105.256 2.34862C103.648 1.11057 101.747 0.441482 99.7983 0.427418L70.0011 0.290547C68.4547 0.282709 66.929 0.689462 65.5505 1.4771C64.172 2.26474 62.9805 3.41055 62.0748 4.81942L54.0065 17.3792L0.633301 55.8458Z" fill="#3F3D56"/>
</svg>
