<svg width="127" height="16" viewBox="0 0 127 16" fill="none" xmlns="http://www.w3.org/2000/svg">
<path d="M1.39967 15.0099C1.60666 15.3016 1.86976 15.5368 2.16922 15.6978C2.46868 15.8589 2.79668 15.9416 3.12865 15.9397H124.115C124.446 15.9393 124.772 15.8559 125.071 15.6957C125.37 15.5355 125.633 15.3025 125.841 15.0137C126.05 14.7249 126.198 14.3874 126.276 14.0259C126.354 13.6644 126.359 13.288 126.291 12.924L124.413 2.89682C124.335 2.48791 124.168 2.10733 123.925 1.78983C123.683 1.47233 123.374 1.22796 123.027 1.07895C122.775 0.967964 122.507 0.911164 122.237 0.91147H4.9993C4.72895 0.911159 4.46095 0.967959 4.20928 1.07895C3.86167 1.22795 3.55272 1.47232 3.31061 1.78983C3.0685 2.10733 2.90092 2.4879 2.8231 2.89682L0.945015 12.924C0.878194 13.2878 0.884347 13.6638 0.962989 14.0246C1.04163 14.3854 1.19081 14.722 1.39967 15.0099V15.0099Z" fill="#2F2E41"/>
</svg>
